<svg width="147" height="121" viewBox="0 0 147 121" fill="none" xmlns="http://www.w3.org/2000/svg">
<g clip-path="url(#clip0_74_31)">
<path d="M1 86.0051V0L66.3307 75.2309L93.1124 46.0163L90.5599 63.1947L66.6497 88.9812L11.9416 27.2933L11.3035 80.9382L1 86.0051Z" fill="#2CD3E1"/>
<path d="M18.6416 2.52396L31.1222 2.26025L65.8051 41.6086V55.1894L18.6416 2.52396Z" fill="#F266AB"/>
<path d="M69.4648 41.4391L104.204 2.26025H116.628L69.4648 55.1894V41.4391Z" fill="#F266AB"/>
<path d="M128.583 65.116H146L137.292 74.2703L128.583 65.116Z" fill="#FFB84C"/>
<path d="M144.536 18.4029C144.536 17.4611 136.316 16.2556 135.603 16.1614C108.033 12.5637 93.3562 43.0403 102.646 66.4158C109.234 82.9914 130.366 91.656 146 81.899C146 81.899 110.341 83.1798 108.352 52.4771C108.06 48.2128 108.736 43.9375 110.329 39.9734C111.922 36.0092 114.39 32.4595 117.548 29.5914C124.886 23.3756 135.922 24.242 144.686 26.4082L144.536 18.4029Z" fill="#A459D1"/>
</g>
<path d="M13.734 103.58V116H12.474V106.082L8.046 116H7.128L2.7 106.118V116H1.44V103.58H2.772L7.578 114.344L12.384 103.58H13.734ZM20.6243 116.144C19.7003 116.144 18.8663 115.94 18.1223 115.532C17.3903 115.112 16.8083 114.524 16.3763 113.768C15.9563 113 15.7463 112.106 15.7463 111.086C15.7463 110.066 15.9623 109.178 16.3943 108.422C16.8263 107.654 17.4143 107.066 18.1583 106.658C18.9023 106.238 19.7363 106.028 20.6603 106.028C21.5843 106.028 22.4183 106.238 23.1623 106.658C23.9183 107.066 24.5063 107.654 24.9263 108.422C25.3583 109.178 25.5743 110.066 25.5743 111.086C25.5743 112.094 25.3583 112.982 24.9263 113.75C24.4943 114.518 23.9003 115.112 23.1443 115.532C22.3883 115.94 21.5483 116.144 20.6243 116.144ZM20.6243 115.046C21.2723 115.046 21.8723 114.902 22.4243 114.614C22.9763 114.314 23.4203 113.87 23.7563 113.282C24.1043 112.682 24.2783 111.95 24.2783 111.086C24.2783 110.222 24.1103 109.496 23.7743 108.908C23.4383 108.308 22.9943 107.864 22.4423 107.576C21.8903 107.276 21.2903 107.126 20.6423 107.126C19.9943 107.126 19.3943 107.276 18.8423 107.576C18.2903 107.864 17.8463 108.308 17.5103 108.908C17.1863 109.496 17.0243 110.222 17.0243 111.086C17.0243 111.95 17.1863 112.682 17.5103 113.282C17.8463 113.87 18.2843 114.314 18.8243 114.614C19.3763 114.902 19.9763 115.046 20.6243 115.046ZM39.3012 105.992C40.4532 105.992 41.3892 106.358 42.1092 107.09C42.8412 107.81 43.2072 108.86 43.2072 110.24V116H41.9652V110.384C41.9652 109.316 41.7072 108.5 41.1912 107.936C40.6752 107.372 39.9732 107.09 39.0852 107.09C38.1612 107.09 37.4232 107.396 36.8712 108.008C36.3192 108.62 36.0432 109.508 36.0432 110.672V116H34.8012V110.384C34.8012 109.316 34.5432 108.5 34.0272 107.936C33.5112 107.372 32.8032 107.09 31.9032 107.09C30.9792 107.09 30.2412 107.396 29.6892 108.008C29.1372 108.62 28.8612 109.508 28.8612 110.672V116H27.6012V106.172H28.8612V107.864C29.1732 107.252 29.6172 106.79 30.1932 106.478C30.7692 106.154 31.4112 105.992 32.1192 105.992C32.9712 105.992 33.7152 106.196 34.3512 106.604C34.9992 107.012 35.4672 107.612 35.7552 108.404C36.0192 107.624 36.4692 107.03 37.1052 106.622C37.7532 106.202 38.4852 105.992 39.3012 105.992ZM46.3655 104.318C46.1135 104.318 45.8975 104.228 45.7175 104.048C45.5375 103.868 45.4475 103.646 45.4475 103.382C45.4475 103.118 45.5375 102.902 45.7175 102.734C45.8975 102.554 46.1135 102.464 46.3655 102.464C46.6175 102.464 46.8335 102.554 47.0135 102.734C47.1935 102.902 47.2835 103.118 47.2835 103.382C47.2835 103.646 47.1935 103.868 47.0135 104.048C46.8335 104.228 46.6175 104.318 46.3655 104.318ZM46.9955 106.172V116H45.7355V106.172H46.9955ZM54.1867 105.992C55.3627 105.992 56.3227 106.358 57.0667 107.09C57.8107 107.81 58.1827 108.86 58.1827 110.24V116H56.9407V110.384C56.9407 109.316 56.6707 108.5 56.1307 107.936C55.6027 107.372 54.8767 107.09 53.9527 107.09C53.0047 107.09 52.2487 107.39 51.6847 107.99C51.1207 108.59 50.8387 109.472 50.8387 110.636V116H49.5787V106.172H50.8387V107.846C51.1507 107.246 51.6007 106.79 52.1887 106.478C52.7767 106.154 53.4427 105.992 54.1867 105.992Z" fill="#2CD3E1"/>
<path d="M73.4328 107.36C73.2048 106.94 72.8748 106.622 72.4428 106.406C72.0228 106.178 71.5248 106.064 70.9488 106.064C69.9528 106.064 69.1548 106.394 68.5548 107.054C67.9548 107.702 67.6548 108.572 67.6548 109.664C67.6548 110.828 67.9668 111.74 68.5908 112.4C69.2268 113.048 70.0968 113.372 71.2008 113.372C71.9568 113.372 72.5928 113.18 73.1088 112.796C73.6368 112.412 74.0208 111.86 74.2608 111.14H70.3548V108.872H77.0508V111.734C76.8228 112.502 76.4328 113.216 75.8808 113.876C75.3408 114.536 74.6508 115.07 73.8108 115.478C72.9708 115.886 72.0228 116.09 70.9668 116.09C69.7188 116.09 68.6028 115.82 67.6188 115.28C66.6468 114.728 65.8848 113.966 65.3328 112.994C64.7928 112.022 64.5228 110.912 64.5228 109.664C64.5228 108.416 64.7928 107.306 65.3328 106.334C65.8848 105.35 66.6468 104.588 67.6188 104.048C68.5908 103.496 69.7008 103.22 70.9488 103.22C72.4608 103.22 73.7328 103.586 74.7648 104.318C75.8088 105.05 76.4988 106.064 76.8348 107.36H73.4328ZM81.5638 107.63C81.9238 107.078 82.3738 106.646 82.9138 106.334C83.4538 106.01 84.0538 105.848 84.7138 105.848V109.106H83.8678C83.0998 109.106 82.5238 109.274 82.1398 109.61C81.7558 109.934 81.5638 110.51 81.5638 111.338V116H78.4858V105.956H81.5638V107.63ZM85.303 110.96C85.303 109.928 85.495 109.022 85.879 108.242C86.275 107.462 86.809 106.862 87.481 106.442C88.153 106.022 88.903 105.812 89.731 105.812C90.439 105.812 91.057 105.956 91.585 106.244C92.125 106.532 92.539 106.91 92.827 107.378V105.956H95.905V116H92.827V114.578C92.527 115.046 92.107 115.424 91.567 115.712C91.039 116 90.421 116.144 89.713 116.144C88.897 116.144 88.153 115.934 87.481 115.514C86.809 115.082 86.275 114.476 85.879 113.696C85.495 112.904 85.303 111.992 85.303 110.96ZM92.827 110.978C92.827 110.21 92.611 109.604 92.179 109.16C91.759 108.716 91.243 108.494 90.631 108.494C90.019 108.494 89.497 108.716 89.065 109.16C88.645 109.592 88.435 110.192 88.435 110.96C88.435 111.728 88.645 112.34 89.065 112.796C89.497 113.24 90.019 113.462 90.631 113.462C91.243 113.462 91.759 113.24 92.179 112.796C92.611 112.352 92.827 111.746 92.827 110.978ZM100.94 107.378C101.24 106.91 101.654 106.532 102.182 106.244C102.71 105.956 103.328 105.812 104.036 105.812C104.864 105.812 105.614 106.022 106.286 106.442C106.958 106.862 107.486 107.462 107.87 108.242C108.266 109.022 108.464 109.928 108.464 110.96C108.464 111.992 108.266 112.904 107.87 113.696C107.486 114.476 106.958 115.082 106.286 115.514C105.614 115.934 104.864 116.144 104.036 116.144C103.34 116.144 102.722 116 102.182 115.712C101.654 115.424 101.24 115.052 100.94 114.596V120.788H97.8618V105.956H100.94V107.378ZM105.332 110.96C105.332 110.192 105.116 109.592 104.684 109.16C104.264 108.716 103.742 108.494 103.118 108.494C102.506 108.494 101.984 108.716 101.552 109.16C101.132 109.604 100.922 110.21 100.922 110.978C100.922 111.746 101.132 112.352 101.552 112.796C101.984 113.24 102.506 113.462 103.118 113.462C103.73 113.462 104.252 113.24 104.684 112.796C105.116 112.34 105.332 111.728 105.332 110.96ZM115.983 105.848C117.135 105.848 118.059 106.232 118.755 107C119.451 107.756 119.799 108.8 119.799 110.132V116H116.739V110.546C116.739 109.874 116.565 109.352 116.217 108.98C115.869 108.608 115.401 108.422 114.813 108.422C114.225 108.422 113.757 108.608 113.409 108.98C113.061 109.352 112.887 109.874 112.887 110.546V116H109.809V102.68H112.887V107.306C113.199 106.862 113.625 106.508 114.165 106.244C114.705 105.98 115.311 105.848 115.983 105.848ZM123.215 104.912C122.675 104.912 122.231 104.756 121.883 104.444C121.547 104.12 121.379 103.724 121.379 103.256C121.379 102.776 121.547 102.38 121.883 102.068C122.231 101.744 122.675 101.582 123.215 101.582C123.743 101.582 124.175 101.744 124.511 102.068C124.859 102.38 125.033 102.776 125.033 103.256C125.033 103.724 124.859 104.12 124.511 104.444C124.175 104.756 123.743 104.912 123.215 104.912ZM124.745 105.956V116H121.667V105.956H124.745ZM126.094 110.978C126.094 109.934 126.304 109.022 126.724 108.242C127.156 107.462 127.75 106.862 128.506 106.442C129.274 106.022 130.15 105.812 131.134 105.812C132.394 105.812 133.444 106.142 134.284 106.802C135.136 107.462 135.694 108.392 135.958 109.592H132.682C132.406 108.824 131.872 108.44 131.08 108.44C130.516 108.44 130.066 108.662 129.73 109.106C129.394 109.538 129.226 110.162 129.226 110.978C129.226 111.794 129.394 112.424 129.73 112.868C130.066 113.3 130.516 113.516 131.08 113.516C131.872 113.516 132.406 113.132 132.682 112.364H135.958C135.694 113.54 135.136 114.464 134.284 115.136C133.432 115.808 132.382 116.144 131.134 116.144C130.15 116.144 129.274 115.934 128.506 115.514C127.75 115.094 127.156 114.494 126.724 113.714C126.304 112.934 126.094 112.022 126.094 110.978ZM141.421 116.144C140.545 116.144 139.765 115.994 139.081 115.694C138.397 115.394 137.857 114.986 137.461 114.47C137.065 113.942 136.843 113.354 136.795 112.706H139.837C139.873 113.054 140.035 113.336 140.323 113.552C140.611 113.768 140.965 113.876 141.385 113.876C141.769 113.876 142.063 113.804 142.267 113.66C142.483 113.504 142.591 113.306 142.591 113.066C142.591 112.778 142.441 112.568 142.141 112.436C141.841 112.292 141.355 112.136 140.683 111.968C139.963 111.8 139.363 111.626 138.883 111.446C138.403 111.254 137.989 110.96 137.641 110.564C137.293 110.156 137.119 109.61 137.119 108.926C137.119 108.35 137.275 107.828 137.587 107.36C137.911 106.88 138.379 106.502 138.991 106.226C139.615 105.95 140.353 105.812 141.205 105.812C142.465 105.812 143.455 106.124 144.175 106.748C144.907 107.372 145.327 108.2 145.435 109.232H142.591C142.543 108.884 142.387 108.608 142.123 108.404C141.871 108.2 141.535 108.098 141.115 108.098C140.755 108.098 140.479 108.17 140.287 108.314C140.095 108.446 139.999 108.632 139.999 108.872C139.999 109.16 140.149 109.376 140.449 109.52C140.761 109.664 141.241 109.808 141.889 109.952C142.633 110.144 143.239 110.336 143.707 110.528C144.175 110.708 144.583 111.008 144.931 111.428C145.291 111.836 145.477 112.388 145.489 113.084C145.489 113.672 145.321 114.2 144.985 114.668C144.661 115.124 144.187 115.484 143.563 115.748C142.951 116.012 142.237 116.144 141.421 116.144Z" fill="#A459D1"/>
<defs>
<clipPath id="clip0_74_31">
<rect width="145" height="89" fill="white" transform="translate(1)"/>
</clipPath>
</defs>
</svg>
