<svg width="391" height="282" viewBox="0 0 391 282" fill="none" xmlns="http://www.w3.org/2000/svg">
<path d="M299.05 188.22C309.17 188.58 319.2 190.68 328.65 194.32C338.1 197.96 346.95 203.13 354.75 209.58C359.12 213.19 363.13 217.22 366.74 221.59C367.09 222.02 367.74 221.45 367.39 221.03C360.9 213.17 353.06 206.44 344.36 201.12C335.66 195.81 326.1 191.88 316.16 189.61C310.56 188.33 304.86 187.57 299.12 187.37C298.57 187.35 298.5 188.2 299.05 188.22Z" fill="#2DD3E1"/>
<path d="M319.12 191.27C325.2 185.41 333.55 178.82 342.1 175.11C346.94 173.01 352.29 171.28 357.84 171.33C360.46 171.36 363.28 171.89 364.88 173.43C367.26 175.72 365.93 179.24 363.37 181.48C360.59 183.91 356.69 185.42 352.8 186.7C342.45 190.12 330.3 190.32 319.12 191.27Z" fill="#2DD3E1"/>
<path d="M344.78 201.94C350.34 198.38 357.74 194.62 364.86 193.09C368.89 192.22 373.25 191.72 377.49 192.61C379.5 193.03 381.57 193.87 382.56 195.3C384.03 197.42 382.47 199.91 380.17 201.23C377.67 202.66 374.45 203.22 371.27 203.61C362.82 204.64 353.48 202.93 344.78 201.94Z" fill="#2DD3E1"/>
<path d="M348.29 203.93C356.4 206.29 366.27 210.25 373.74 215.83C377.97 218.99 382.13 222.76 384.84 227.61C386.12 229.9 387.06 232.6 386.52 234.76C385.72 237.97 382 238.56 378.78 237.45C375.29 236.25 372.04 233.61 368.99 230.87C360.89 223.6 354.68 213.15 348.29 203.93Z" fill="#2DD3E1"/>
<path d="M327.78 193.31C332.64 198.42 338.21 205.5 341.6 212.9C343.52 217.09 345.18 221.75 345.5 226.67C345.65 229 345.43 231.52 344.36 233.02C342.77 235.25 340 234.24 338.12 232.07C336.09 229.73 334.68 226.34 333.45 222.95C330.17 213.95 329.23 203.18 327.78 193.31Z" fill="#2DD3E1"/>
<path d="M312.85 189.19C315.97 192.47 319.54 197.01 321.71 201.76C322.94 204.45 324.01 207.44 324.21 210.6C324.31 212.09 324.16 213.71 323.48 214.67C322.46 216.1 320.68 215.45 319.48 214.06C318.18 212.56 317.27 210.38 316.48 208.21C314.38 202.42 313.78 195.52 312.85 189.19Z" fill="#2DD3E1"/>
<g opacity="0.09">
<path d="M192.62 233.22C189.6 238.86 185.63 243.97 180.93 248.31C176.24 252.66 170.85 256.24 165.02 258.88C161.76 260.35 158.36 261.51 154.87 262.34C154.53 262.42 154.67 262.95 155.01 262.86C161.28 261.36 167.27 258.79 172.7 255.33C178.13 251.87 183.01 247.54 187.07 242.53C189.35 239.71 191.37 236.68 193.08 233.49C193.25 233.19 192.78 232.91 192.62 233.22Z" fill="#4B0263"/>
<path d="M185.31 243.75C186.94 248.83 188.36 255.4 188.09 261.28C187.94 264.61 187.43 268.13 185.86 271.26C185.11 272.74 184.03 274.19 182.71 274.67C180.75 275.38 179.12 273.65 178.56 271.57C177.95 269.32 178.18 266.68 178.54 264.12C179.48 257.31 182.74 250.36 185.31 243.75Z" fill="#4B0263"/>
<path d="M172.12 255.34C172.59 259.48 172.67 264.73 171.56 269.19C170.93 271.72 170.01 274.33 168.32 276.49C167.52 277.51 166.47 278.45 165.39 278.62C163.78 278.87 162.8 277.29 162.69 275.61C162.57 273.79 163.15 271.81 163.81 269.9C165.58 264.83 169.14 260.01 172.12 255.34Z" fill="#4B0263"/>
<path d="M170.02 256.78C166.43 260.72 161.43 265.22 156.19 267.91C153.22 269.43 149.92 270.74 146.42 270.93C144.76 271.02 142.97 270.8 141.89 269.89C140.29 268.54 140.99 266.27 142.51 264.75C144.16 263.11 146.56 261.99 148.96 261.02C155.36 258.46 163.01 257.84 170.02 256.78Z" fill="#4B0263"/>
<path d="M181.74 248.1C177.49 249.44 171.93 250.63 166.78 250.49C163.87 250.41 160.76 250.06 157.88 248.87C156.52 248.31 155.15 247.48 154.6 246.46C153.78 244.94 155.12 243.65 156.87 243.18C158.76 242.68 161.08 242.82 163.34 243.07C169.37 243.72 175.74 246.18 181.74 248.1Z" fill="#4B0263"/>
<path d="M188.24 240.78C185.51 241.64 181.94 242.4 178.65 242.32C176.78 242.27 174.79 242.05 172.94 241.28C172.07 240.92 171.19 240.39 170.83 239.73C170.3 238.75 171.16 237.92 172.29 237.63C173.51 237.31 174.99 237.4 176.44 237.56C180.3 237.97 184.39 239.55 188.24 240.78Z" fill="#4B0263"/>
</g>
<g opacity="0.09">
<path d="M233.02 47.36C235.73 41.56 239.43 36.26 243.88 31.66C248.33 27.07 253.53 23.2 259.21 20.26C262.39 18.62 265.72 17.27 269.16 16.26C269.49 16.16 269.33 15.65 268.99 15.74C262.81 17.57 256.96 20.46 251.72 24.2C246.48 27.94 241.84 32.53 238.06 37.74C235.93 40.68 234.08 43.81 232.54 47.09C232.39 47.42 232.87 47.68 233.02 47.36Z" fill="#4B0263"/>
<path d="M239.75 36.4499C237.85 31.4599 236.08 24.9799 236.04 19.0899C236.02 15.7599 236.33 12.2199 237.74 9.00994C238.41 7.48994 239.41 5.98994 240.7 5.42994C242.62 4.60994 244.34 6.25994 245.01 8.29994C245.73 10.5099 245.65 13.1599 245.43 15.7399C244.86 22.5999 241.96 29.7099 239.75 36.4499Z" fill="#4B0263"/>
<path d="M252.3 24.17C251.61 20.06 251.25 14.83 252.12 10.31C252.61 7.74997 253.4 5.08997 254.97 2.84997C255.71 1.78997 256.71 0.789972 257.79 0.569972C259.39 0.239972 260.45 1.75997 260.65 3.42997C260.87 5.23997 260.39 7.24997 259.83 9.18997C258.33 14.35 255.03 19.35 252.3 24.17Z" fill="#4B0263"/>
<path d="M254.331 22.62C257.711 18.49 262.451 13.73 267.541 10.77C270.421 9.09 273.651 7.61001 277.131 7.23001C278.781 7.05001 280.581 7.17 281.711 8.02C283.381 9.28 282.801 11.59 281.361 13.18C279.801 14.91 277.461 16.15 275.121 17.24C268.881 20.16 261.271 21.19 254.331 22.62Z" fill="#4B0263"/>
<path d="M243.081 31.92C247.251 30.36 252.741 28.87 257.891 28.73C260.801 28.65 263.921 28.84 266.861 29.87C268.251 30.36 269.661 31.11 270.271 32.11C271.171 33.59 269.901 34.95 268.181 35.5C266.321 36.1 264.001 36.08 261.721 35.96C255.671 35.63 249.181 33.51 243.081 31.92Z" fill="#4B0263"/>
<path d="M236.99 39.58C239.67 38.58 243.19 37.62 246.49 37.54C248.36 37.49 250.36 37.61 252.24 38.27C253.13 38.58 254.04 39.07 254.43 39.7C255.01 40.65 254.19 41.52 253.09 41.88C251.89 42.27 250.41 42.25 248.95 42.17C245.07 41.96 240.9 40.6 236.99 39.58Z" fill="#4B0263"/>
</g>
<path d="M88.1803 74.83C79.3003 77.02 70.0703 77.67 60.9703 76.84C51.8703 76.01 42.9003 73.71 34.5303 70.03C29.8503 67.97 25.3603 65.47 21.1503 62.56C20.7403 62.28 20.3103 62.92 20.7303 63.21C28.3103 68.44 36.7803 72.35 45.6403 74.82C54.5103 77.29 63.7803 78.34 72.9703 77.86C78.1503 77.59 83.2903 76.84 88.3303 75.6C88.8103 75.47 88.6703 74.71 88.1803 74.83Z" fill="#FFB84C"/>
<path d="M70 77.13C66.16 83.72 60.54 91.51 54.03 96.84C50.34 99.86 46.12 102.68 41.29 104C39 104.62 36.43 104.86 34.65 103.91C32.01 102.51 32.3 99.12 33.98 96.54C35.79 93.75 38.81 91.47 41.87 89.39C50.01 83.89 60.52 80.72 70 77.13Z" fill="#FFB84C"/>
<path d="M45.0701 74.2C41.1201 78.66 35.6201 83.76 29.8201 86.85C26.5301 88.6 22.8701 90.11 18.9701 90.38C17.1201 90.51 15.1201 90.29 13.9001 89.3C12.1001 87.82 12.8401 85.27 14.5101 83.55C16.3301 81.69 18.9901 80.4099 21.6501 79.2899C28.7401 76.3099 37.2701 75.49 45.0701 74.2Z" fill="#FFB84C"/>
<path d="M41.5302 73.34C33.9002 73.29 24.3502 72.29 16.4802 69.29C12.0302 67.59 7.48017 65.34 3.93017 61.8C2.25017 60.13 0.770168 58.01 0.700168 56C0.610168 53.02 3.69017 51.58 6.76017 51.75C10.0902 51.93 13.5602 53.42 16.8902 55.04C25.7302 59.36 33.7102 66.9 41.5302 73.34Z" fill="#FFB84C"/>
<path d="M61.9703 77.5C56.4803 74.26 49.9003 69.49 45.1303 63.89C42.4303 60.72 39.8303 57.09 38.3403 52.89C37.6403 50.9 37.2003 48.66 37.7703 47.09C38.6103 44.76 41.2603 44.95 43.4203 46.37C45.7603 47.9 47.8203 50.5 49.7303 53.14C54.8003 60.16 58.2703 69.28 61.9703 77.5Z" fill="#FFB84C"/>
<path d="M75.95 77.3999C72.43 75.3199 68.21 72.2599 65.15 68.6699C63.42 66.6399 61.75 64.3099 60.8 61.6099C60.35 60.3399 60.07 58.8999 60.43 57.8899C60.97 56.3999 62.67 56.5199 64.06 57.4299C65.56 58.4099 66.88 60.0799 68.11 61.7699C71.36 66.2799 73.58 72.1299 75.95 77.3999Z" fill="#FFB84C"/>
<path opacity="0.09" d="M135.31 22.8199L56.1504 145.18L214.47 143.88L135.31 22.8199Z" fill="#4B0263"/>
<path opacity="0.45" d="M141.99 244.84C171.173 244.84 194.83 221.183 194.83 192C194.83 162.817 171.173 139.16 141.99 139.16C112.808 139.16 89.1504 162.817 89.1504 192C89.1504 221.183 112.808 244.84 141.99 244.84Z" fill="#FFD96E"/>
<path opacity="0.45" d="M338.07 73.46H191.63V209.8H338.07V73.46Z" fill="#FFD96E"/>
<path d="M372.43 44.37H249.77V158.57H372.43V44.37Z" stroke="#2DD3E1" stroke-miterlimit="10"/>
<path d="M82.0301 211.26H59.3501V233.94H82.0301V211.26Z" fill="#FFB84C"/>
<path d="M104.7 211.26H82.02V233.94H104.7V211.26Z" fill="#F266AB"/>
<path d="M127.38 211.26H104.7V233.94H127.38V211.26Z" fill="#A459D2"/>
<path d="M150.05 211.26H127.37V233.94H150.05V211.26Z" fill="#2DD3E1"/>
<path d="M298.47 217.43C298.47 228.29 289.67 237.09 278.81 237.09C267.95 237.09 259.15 228.29 259.15 217.43C259.15 206.57 267.95 197.77 278.81 197.77C289.67 197.77 298.47 206.58 298.47 217.43Z" stroke="#FFB84C" stroke-miterlimit="10"/>
<path d="M278.61 192C278.61 192.45 278.61 192.91 278.61 193.36C278.61 194.6 278.61 195.83 278.61 197.07C278.61 198.89 278.61 200.71 278.61 202.53C278.61 204.76 278.61 206.99 278.61 209.22C278.61 211.65 278.61 214.08 278.61 216.51C278.61 218.97 278.61 221.44 278.61 223.9C278.61 226.2 278.61 228.5 278.61 230.79C278.61 232.73 278.61 234.67 278.61 236.61C278.61 238 278.61 239.39 278.61 240.78C278.61 241.44 278.6 242.1 278.61 242.77C278.61 242.8 278.61 242.83 278.61 242.86C278.61 243.84 280.14 243.85 280.14 242.86C280.14 242.41 280.14 241.95 280.14 241.5C280.14 240.26 280.14 239.03 280.14 237.79C280.14 235.97 280.14 234.15 280.14 232.33C280.14 230.1 280.14 227.87 280.14 225.64C280.14 223.21 280.14 220.78 280.14 218.35C280.14 215.89 280.14 213.42 280.14 210.96C280.14 208.66 280.14 206.36 280.14 204.07C280.14 202.13 280.14 200.19 280.14 198.25C280.14 196.86 280.14 195.47 280.14 194.08C280.14 193.42 280.15 192.75 280.14 192.09C280.14 192.06 280.14 192.03 280.14 192C280.14 191.02 278.61 191.02 278.61 192Z" fill="#010305"/>
<path d="M304.81 216.67C304.36 216.67 303.9 216.67 303.45 216.67C302.21 216.67 300.98 216.67 299.74 216.67C297.92 216.67 296.1 216.67 294.28 216.67C292.05 216.67 289.82 216.67 287.59 216.67C285.16 216.67 282.73 216.67 280.3 216.67C277.84 216.67 275.37 216.67 272.91 216.67C270.61 216.67 268.31 216.67 266.02 216.67C264.08 216.67 262.14 216.67 260.2 216.67C258.81 216.67 257.42 216.67 256.03 216.67C255.37 216.67 254.71 216.66 254.04 216.67C254.01 216.67 253.98 216.67 253.95 216.67C252.97 216.67 252.96 218.2 253.95 218.2C254.4 218.2 254.86 218.2 255.31 218.2C256.55 218.2 257.78 218.2 259.02 218.2C260.84 218.2 262.66 218.2 264.48 218.2C266.71 218.2 268.94 218.2 271.17 218.2C273.6 218.2 276.03 218.2 278.46 218.2C280.92 218.2 283.39 218.2 285.85 218.2C288.15 218.2 290.45 218.2 292.74 218.2C294.68 218.2 296.62 218.2 298.56 218.2C299.95 218.2 301.34 218.2 302.73 218.2C303.39 218.2 304.06 218.21 304.72 218.2C304.75 218.2 304.78 218.2 304.81 218.2C305.79 218.2 305.79 216.67 304.81 216.67Z" fill="#010305"/>
<path d="M43.7903 178.34C36.4903 178.34 30.5503 172.4 30.5503 165.1C30.5503 157.8 36.4903 151.86 43.7903 151.86C51.0903 151.86 57.0303 157.8 57.0303 165.1C57.0303 172.4 51.0903 178.34 43.7903 178.34ZM43.7903 152.52C36.8503 152.52 31.2103 158.16 31.2103 165.1C31.2103 172.04 36.8503 177.68 43.7903 177.68C50.7303 177.68 56.3703 172.04 56.3703 165.1C56.3703 158.17 50.7303 152.52 43.7903 152.52Z" fill="#F266AB"/>
<path d="M43.6602 148.4C43.6602 148.7 43.6602 149 43.6602 149.29C43.6602 150.1 43.6602 150.91 43.6602 151.73C43.6602 152.92 43.6602 154.12 43.6602 155.31C43.6602 156.77 43.6602 158.24 43.6602 159.7C43.6602 161.3 43.6602 162.89 43.6602 164.49C43.6602 166.11 43.6602 167.73 43.6602 169.35C43.6602 170.86 43.6602 172.37 43.6602 173.88C43.6602 175.16 43.6602 176.43 43.6602 177.71C43.6602 178.62 43.6602 179.54 43.6602 180.45C43.6602 180.88 43.6502 181.32 43.6602 181.75C43.6602 181.77 43.6602 181.79 43.6602 181.81C43.6602 182.46 44.6702 182.46 44.6702 181.81C44.6702 181.51 44.6702 181.21 44.6702 180.92C44.6702 180.11 44.6702 179.3 44.6702 178.48C44.6702 177.29 44.6702 176.09 44.6702 174.9C44.6702 173.44 44.6702 171.97 44.6702 170.51C44.6702 168.91 44.6702 167.32 44.6702 165.72C44.6702 164.1 44.6702 162.48 44.6702 160.86C44.6702 159.35 44.6702 157.84 44.6702 156.33C44.6702 155.06 44.6702 153.78 44.6702 152.5C44.6702 151.59 44.6702 150.67 44.6702 149.76C44.6702 149.33 44.6802 148.89 44.6702 148.46C44.6702 148.44 44.6702 148.42 44.6702 148.4C44.6602 147.76 43.6602 147.76 43.6602 148.4Z" fill="#010305"/>
<path d="M60.8602 164.6C60.5602 164.6 60.2602 164.6 59.9702 164.6C59.1602 164.6 58.3502 164.6 57.5302 164.6C56.3402 164.6 55.1402 164.6 53.9502 164.6C52.4902 164.6 51.0202 164.6 49.5602 164.6C47.9602 164.6 46.3702 164.6 44.7702 164.6C43.1502 164.6 41.5302 164.6 39.9102 164.6C38.4002 164.6 36.8902 164.6 35.3802 164.6C34.1102 164.6 32.8302 164.6 31.5602 164.6C30.6502 164.6 29.7302 164.6 28.8202 164.6C28.3902 164.6 27.9502 164.59 27.5202 164.6C27.5002 164.6 27.4802 164.6 27.4602 164.6C26.8102 164.6 26.8102 165.61 27.4602 165.61C27.7602 165.61 28.0602 165.61 28.3502 165.61C29.1602 165.61 29.9702 165.61 30.7902 165.61C31.9802 165.61 33.1802 165.61 34.3702 165.61C35.8302 165.61 37.3002 165.61 38.7602 165.61C40.3602 165.61 41.9502 165.61 43.5502 165.61C45.1702 165.61 46.7902 165.61 48.4102 165.61C49.9202 165.61 51.4302 165.61 52.9402 165.61C54.2102 165.61 55.4902 165.61 56.7702 165.61C57.6802 165.61 58.6002 165.61 59.5102 165.61C59.9402 165.61 60.3802 165.62 60.8102 165.61C60.8302 165.61 60.8502 165.61 60.8702 165.61C61.5102 165.61 61.5102 164.6 60.8602 164.6Z" fill="#010305"/>
<path d="M299.66 31.67H331.06C333.18 31.67 334.99 33.19 335.36 35.27L337.67 48.14C338.97 55.35 345.24 60.59 352.56 60.59L351.2 30.36C350.95 24.77 346.35 20.37 340.75 20.37H299.91H278.22H237.94C232.04 20.37 227.18 25.02 226.91 30.92L225.58 60.59C232.9 60.59 239.18 55.34 240.47 48.14L242.9 34.63C243.21 32.92 244.7 31.67 246.44 31.67H278.48C278.88 51.24 278.9 70.9 278.9 90.42V101.72C278.9 121.47 278.88 141.05 278.48 160.23L264.16 161.76C259.05 162.31 255.17 166.62 255.17 171.76H278.22H299.91H322.96C322.96 166.62 319.08 162.31 313.97 161.76L299.65 160.23C299.25 140.74 299.23 121.16 299.23 101.72V90.42C299.24 70.58 299.26 50.93 299.66 31.67Z" fill="#F266AB"/>
<path d="M134.19 199.74H82.4101C81.9901 199.74 81.6601 199.36 81.7301 198.95L84.7301 179.48C84.7801 179.14 85.0701 178.9 85.4101 178.9H129.37C129.7 178.9 129.98 179.13 130.05 179.45L134.19 199.74Z" stroke="#A459D2" stroke-miterlimit="10"/>
<path d="M153.94 110.38L112.6 42.01C111.95 40.94 110.31 41.4 110.31 42.65V103.62C112.87 104.35 114.74 106.7 114.74 109.49C114.74 112.87 112 115.6 108.63 115.6C105.25 115.6 102.52 112.86 102.52 109.49C102.52 106.65 104.47 104.26 107.1 103.58V42.46C107.1 41.23 105.49 40.76 104.83 41.79L60.2803 110.92C60.0603 111.26 60.0203 111.68 60.1803 112.06L84.5403 171.45C84.7303 171.91 85.1803 172.22 85.6803 172.22H129.08C129.59 172.22 130.04 171.91 130.23 171.44L154.05 111.48C154.17 111.11 154.14 110.71 153.94 110.38Z" stroke="#A459D2" stroke-miterlimit="10"/>
<path d="M42.0703 37.9499C42.0703 37.9499 101.46 -21.4301 175.69 37.9499" stroke="#A459D2" stroke-miterlimit="10"/>
<path d="M44.1604 39.47C44.1604 41.61 42.4204 43.35 40.2804 43.35C38.1404 43.35 36.4004 41.61 36.4004 39.47C36.4004 37.33 38.1404 35.59 40.2804 35.59C42.4204 35.59 44.1604 37.33 44.1604 39.47Z" fill="#A459D2"/>
<path d="M175.68 43.35C177.823 43.35 179.56 41.6128 179.56 39.47C179.56 37.3271 177.823 35.59 175.68 35.59C173.537 35.59 171.8 37.3271 171.8 39.47C171.8 41.6128 173.537 43.35 175.68 43.35Z" fill="#A459D2"/>
<path d="M112.16 8.28003H105.59V14.85H112.16V8.28003Z" fill="#A459D2"/>
<path d="M62.7099 262.87C86.4599 281.87 107.68 280.89 121.3 276.71C136.09 272.17 145.38 263.01 145.47 262.92L146.35 263.81C146.26 263.9 136.78 273.26 121.71 277.9C107.79 282.18 86.1199 283.22 61.9199 263.86L62.7099 262.87Z" fill="#02A2CB"/>
<path d="M144.6 262.41C144.6 261.07 145.69 259.98 147.03 259.98C148.37 259.98 149.46 261.07 149.46 262.41C149.46 263.75 148.37 264.84 147.03 264.84C145.69 264.84 144.6 263.75 144.6 262.41Z" fill="#02A2CB"/>
<path d="M59.8901 262.41C59.8901 261.07 60.9801 259.98 62.3201 259.98C63.6601 259.98 64.7501 261.07 64.7501 262.41C64.7501 263.75 63.6601 264.84 62.3201 264.84C60.9701 264.84 59.8901 263.75 59.8901 262.41Z" fill="#02A2CB"/>
<path d="M102.055 281.929H106.165V277.819H102.055V281.929Z" fill="#02A2CB"/>
<path d="M384.79 105.6C368.84 92.8399 354.59 93.4999 345.45 96.3099C335.52 99.3599 329.28 105.51 329.22 105.57L328.63 104.98C328.69 104.92 335.06 98.6299 345.18 95.5199C354.53 92.6399 369.08 91.9499 385.33 104.95L384.79 105.6Z" fill="#2DD3E1"/>
<path d="M328.16 107.54C329.061 107.54 329.79 106.81 329.79 105.91C329.79 105.01 329.061 104.28 328.16 104.28C327.26 104.28 326.53 105.01 326.53 105.91C326.53 106.81 327.26 107.54 328.16 107.54Z" fill="#2DD3E1"/>
<path d="M385.05 107.54C385.951 107.54 386.68 106.81 386.68 105.91C386.68 105.01 385.951 104.28 385.05 104.28C384.15 104.28 383.42 105.01 383.42 105.91C383.42 106.81 384.15 107.54 385.05 107.54Z" fill="#2DD3E1"/>
<path d="M358.36 92.7999H355.6V95.5599H358.36V92.7999Z" fill="#2DD3E1"/>
<path d="M189.92 106.1L176.3 108.89C176.19 108.91 176.08 108.83 176.08 108.72L175.82 103.44C175.82 103.35 175.88 103.27 175.97 103.25L187.53 100.89C187.62 100.87 187.7 100.92 187.74 101L189.92 106.1Z" fill="#A459D2"/>
<path d="M190.31 81.5299L175.76 65.7699C175.53 65.5199 175.12 65.7299 175.19 66.0599L178.47 82.0999C179.18 82.1499 179.8 82.6699 179.95 83.4099C180.13 84.2999 179.56 85.1599 178.67 85.3499C177.78 85.5299 176.92 84.9599 176.73 84.0699C176.58 83.3199 176.96 82.5899 177.62 82.2699L174.33 66.1999C174.26 65.8799 173.82 65.8399 173.7 66.1499L165.7 86.7299C165.66 86.8299 165.67 86.9399 165.73 87.0299L175.33 101.34C175.4 101.45 175.54 101.51 175.67 101.48L187.08 99.1499C187.21 99.1199 187.32 99.0199 187.34 98.8799L190.38 81.8299C190.41 81.7199 190.38 81.6099 190.31 81.5299Z" fill="#A459D2"/>
<path d="M189.874 105.885L176.08 108.706L190.126 177.374L203.92 174.552L189.874 105.885Z" fill="#F266AB"/>
<path d="M210.518 86.3677L196.444 86.7437L198.315 156.806L212.39 156.43L210.518 86.3677Z" fill="#FFB84C"/>
<path d="M210.53 86.5999L196.64 86.9699C196.53 86.9699 196.44 86.8699 196.45 86.7599L197.12 81.5099C197.13 81.4199 197.21 81.3499 197.3 81.3499L209.1 81.0399C209.19 81.0399 209.27 81.0999 209.29 81.1799L210.53 86.5999Z" stroke="#A459D2" stroke-miterlimit="10"/>
<path d="M215.19 62.4799L203.61 44.4299C203.43 44.1499 202.99 44.2799 203 44.6199L203.44 60.9799C204.13 61.1599 204.65 61.7799 204.67 62.5199C204.69 63.4299 203.98 64.1799 203.07 64.1999C202.16 64.2199 201.41 63.5099 201.39 62.5999C201.37 61.8399 201.87 61.1799 202.58 60.9799L202.14 44.5799C202.13 44.2499 201.7 44.1299 201.53 44.4199L190.07 63.2899C190.01 63.3799 190.01 63.4999 190.05 63.5999L197.01 79.3599C197.06 79.4799 197.19 79.5599 197.32 79.5599L208.97 79.2499C209.11 79.2499 209.23 79.1599 209.27 79.0299L215.23 62.7699C215.25 62.6699 215.24 62.5599 215.19 62.4799Z" stroke="#A459D2" stroke-miterlimit="10"/>
<path d="M234.47 105.2L220.77 101.81L222.18 96.0699L235.77 99.5999L234.47 105.2Z" fill="#A459D2"/>
<path d="M234.52 104.989L220.854 101.601L203.99 169.63L217.656 173.018L234.52 104.989Z" fill="#F266AB"/>
<path d="M235.66 97.44L238.13 86.72L234.28 73.46L225.66 83.6499L223.03 94.3L235.66 97.44Z" stroke="#A459D2" stroke-miterlimit="10"/>
<path d="M229.291 79.2999L236.441 80.8899" stroke="#A459D2" stroke-miterlimit="10"/>
<path d="M210.58 244.17H195.4C181.89 244.17 170.94 233.22 170.94 219.71V154C170.94 152.18 172.41 150.71 174.23 150.71H232.6C234.45 150.71 235.94 152.21 235.94 154.05V218.81C235.95 232.81 224.59 244.17 210.58 244.17Z" fill="#A459D2"/>
<path opacity="0.2" d="M235.95 160.76H170.94V169.44H235.95V160.76Z" fill="#FDF6E6"/>
<path opacity="0.2" d="M235.95 175.22H170.94V183.9H235.95V175.22Z" fill="#FDF6E6"/>
<path d="M357.15 141.63V280.38" stroke="#A459D2" stroke-miterlimit="10"/>
<path d="M374.63 265H182.87" stroke="#A459D2" stroke-miterlimit="10"/>
<path d="M324.24 255.88L323.1 252.54C322.35 250.34 320.62 248.61 318.42 247.86L315.08 246.72L318.49 245.48C320.59 244.71 322.25 243.06 323.01 240.96L324.25 237.55L325.12 240.28C325.96 242.93 328.04 245 330.68 245.84L333.41 246.71L330.6 247.82C328.2 248.77 326.51 249.53 325.35 253.07L324.24 255.88Z" fill="#A459D2"/>
<path d="M382.15 177.34L381.4 175.15C380.91 173.71 379.77 172.57 378.33 172.08L376.14 171.33L378.37 170.52C379.75 170.02 380.83 168.93 381.33 167.56L382.14 165.33L382.71 167.12C383.26 168.85 384.62 170.21 386.35 170.76L388.14 171.33L386.3 172.06C384.73 172.68 383.62 173.18 382.86 175.5L382.15 177.34Z" fill="#FFB84C"/>
<path d="M298.67 259.14C296.1 259.14 294.01 257.05 294.01 254.48C294.01 251.91 296.1 249.82 298.67 249.82C301.24 249.82 303.33 251.91 303.33 254.48C303.33 257.05 301.24 259.14 298.67 259.14ZM298.67 251.21C296.87 251.21 295.41 252.67 295.41 254.47C295.41 256.27 296.87 257.73 298.67 257.73C300.47 257.73 301.93 256.27 301.93 254.47C301.93 252.68 300.47 251.21 298.67 251.21Z" fill="#FFB84C"/>
<path d="M388.12 149.3C386.98 149.3 386.06 148.38 386.06 147.24C386.06 146.1 386.98 145.18 388.12 145.18C389.25 145.18 390.18 146.1 390.18 147.24C390.18 148.38 389.26 149.3 388.12 149.3ZM388.12 145.8C387.33 145.8 386.68 146.45 386.68 147.24C386.68 148.03 387.33 148.68 388.12 148.68C388.91 148.68 389.56 148.03 389.56 147.24C389.56 146.45 388.92 145.8 388.12 145.8Z" fill="#FCB610"/>
<path d="M244.12 247.67C242.98 247.67 242.06 246.75 242.06 245.61C242.06 244.47 242.98 243.55 244.12 243.55C245.26 243.55 246.18 244.47 246.18 245.61C246.17 246.74 245.25 247.67 244.12 247.67ZM244.12 244.17C243.33 244.17 242.68 244.82 242.68 245.61C242.68 246.4 243.33 247.05 244.12 247.05C244.91 247.05 245.56 246.4 245.56 245.61C245.56 244.81 244.91 244.17 244.12 244.17Z" fill="#FCB610"/>
<path d="M190.4 24.0099L189.26 20.6699C188.51 18.4699 186.78 16.7399 184.58 15.9899L181.24 14.8499L184.65 13.6099C186.75 12.8399 188.41 11.1899 189.17 9.08993L190.41 5.67993L191.28 8.40993C192.12 11.0599 194.2 13.1299 196.84 13.9699L199.57 14.8399L196.76 15.9499C194.36 16.8999 192.67 17.6599 191.51 21.1999L190.4 24.0099Z" fill="#F266AB"/>
<path d="M22.0404 122.59L20.9004 119.25C20.1504 117.05 18.4204 115.32 16.2204 114.57L12.8804 113.43L16.2904 112.19C18.3904 111.42 20.0504 109.77 20.8104 107.67L22.0504 104.26L22.9204 106.99C23.7604 109.64 25.8404 111.71 28.4804 112.55L31.2104 113.42L28.4004 114.53C26.0004 115.48 24.3104 116.24 23.1504 119.78L22.0404 122.59Z" fill="#F266AB"/>
<path d="M83.9703 258.45L83.1703 256.11C82.6403 254.57 81.4303 253.36 79.8903 252.83L77.5503 252.03L79.9403 251.16C81.4103 250.62 82.5703 249.46 83.1103 247.99L83.9803 245.6L84.5903 247.52C85.1803 249.37 86.6303 250.83 88.4903 251.42L90.4103 252.03L88.4403 252.81C86.7603 253.47 85.5703 254.01 84.7603 256.49L83.9703 258.45Z" fill="#F266AB"/>
<path d="M211.531 35.5899C208.961 35.5899 206.871 33.4999 206.871 30.9299C206.871 28.3599 208.961 26.2699 211.531 26.2699C214.101 26.2699 216.191 28.3599 216.191 30.9299C216.191 33.4999 214.101 35.5899 211.531 35.5899ZM211.531 27.6699C209.731 27.6699 208.271 29.1299 208.271 30.9299C208.271 32.7299 209.731 34.1899 211.531 34.1899C213.331 34.1899 214.791 32.7299 214.791 30.9299C214.791 29.1299 213.331 27.6699 211.531 27.6699Z" fill="#F266AB"/>
<path d="M40.2806 215.93C37.7106 215.93 35.6206 213.84 35.6206 211.27C35.6206 208.7 37.7106 206.61 40.2806 206.61C42.8506 206.61 44.9406 208.7 44.9406 211.27C44.9406 213.83 42.8506 215.93 40.2806 215.93ZM40.2806 208C38.4806 208 37.0206 209.46 37.0206 211.26C37.0206 213.06 38.4806 214.52 40.2806 214.52C42.0806 214.52 43.5406 213.06 43.5406 211.26C43.5406 209.46 42.0806 208 40.2806 208Z" fill="#F266AB"/>
<path d="M102.06 250.01C100.92 250.01 100 249.09 100 247.95C100 246.81 100.92 245.89 102.06 245.89C103.2 245.89 104.12 246.81 104.12 247.95C104.12 249.09 103.19 250.01 102.06 250.01ZM102.06 246.51C101.27 246.51 100.62 247.16 100.62 247.95C100.62 248.74 101.27 249.39 102.06 249.39C102.85 249.39 103.5 248.74 103.5 247.95C103.5 247.16 102.85 246.51 102.06 246.51Z" fill="#F266AB"/>
<path d="M80.2001 43.59C79.0601 43.59 78.1401 42.67 78.1401 41.53C78.1401 40.4 79.0601 39.47 80.2001 39.47C81.3401 39.47 82.2601 40.39 82.2601 41.53C82.2601 42.67 81.3301 43.59 80.2001 43.59ZM80.2001 40.09C79.4101 40.09 78.7601 40.74 78.7601 41.53C78.7601 42.32 79.4101 42.97 80.2001 42.97C80.9901 42.97 81.6401 42.32 81.6401 41.53C81.6401 40.74 80.9901 40.09 80.2001 40.09Z" fill="#F266AB"/>
<path d="M214.47 10.34C213.33 10.34 212.41 9.41997 212.41 8.27997C212.41 7.13997 213.33 6.21997 214.47 6.21997C215.61 6.21997 216.53 7.13997 216.53 8.27997C216.53 9.40997 215.61 10.34 214.47 10.34ZM214.47 6.83997C213.68 6.83997 213.03 7.48997 213.03 8.27997C213.03 9.06997 213.68 9.71997 214.47 9.71997C215.26 9.71997 215.91 9.06997 215.91 8.27997C215.91 7.47997 215.27 6.83997 214.47 6.83997Z" fill="#F266AB"/>
<path d="M37.7503 138.19C35.1803 138.19 33.0903 136.1 33.0903 133.53C33.0903 130.96 35.1803 128.87 37.7503 128.87C40.3203 128.87 42.4103 130.96 42.4103 133.53C42.4103 136.1 40.3203 138.19 37.7503 138.19ZM37.7503 130.26C35.9503 130.26 34.4903 131.72 34.4903 133.52C34.4903 135.32 35.9503 136.78 37.7503 136.78C39.5503 136.78 41.0103 135.32 41.0103 133.52C41.0103 131.72 39.5503 130.26 37.7503 130.26Z" fill="#F266AB"/>
</svg>
